<?xml version="1.0" encoding="utf-8"?>
<!-- Generator: Adobe Illustrator 22.1.0, SVG Export Plug-In . SVG Version: 6.00 Build 0)  -->
<svg version="1.1" id="Layer_1" xmlns="http://www.w3.org/2000/svg" xmlns:xlink="http://www.w3.org/1999/xlink" x="0px" y="0px"
	 viewBox="0 0 390 328.5" style="enable-background:new 0 0 390 328.5;" xml:space="preserve">
<style type="text/css">
	.st0{fill:url(#XMLID_3_);}
	.st1{fill:#80BDFF;}
	.st2{fill:#4DA3FF;}
	.st3{fill:url(#XMLID_4_);}
	.st4{fill:#0056B3;}
	.st5{fill:url(#XMLID_5_);}
	.st6{fill:url(#XMLID_7_);}
	.st7{fill:url(#XMLID_8_);}
	.st8{fill:url(#XMLID_9_);}
	.st9{fill:#F7EAE8;}
	.st10{fill:#FFFDFD;}
	.st11{fill:#2D2F3A;}
	.st12{fill:#EFC286;}
	.st13{fill:#5EE598;}
	.st14{fill:#26B283;}
	.st15{fill:#EAB07D;}
	.st16{fill:#F9C291;}
	.st17{fill:#EFBB84;}
	.st18{fill:#F0F4E4;}
	.st19{fill:#FF3222;}
	.st20{fill:#2773E2;}
	.st21{fill:#E0E4D5;}
	.st22{fill:#5E6684;}
	.st23{fill:#282933;}
	.st24{fill:#CCD3B2;}
	.st25{fill:url(#XMLID_10_);}
	.st26{fill:url(#XMLID_11_);}
	.st27{fill:#B56924;}
	.st28{fill:#CC8244;}
	.st29{fill:#F2DEA5;}
	.st30{fill:url(#XMLID_12_);}
	.st31{fill:url(#XMLID_13_);}
	.st32{fill:#FFFAE6;}
	.st33{fill:#5E2E0D;}
	.st34{fill:#A55A16;}
	.st35{fill:url(#XMLID_14_);}
	.st36{fill:#AF9477;}
	.st37{fill:#FFFFFF;}
	.st38{fill:#F0FDFF;}
	.st39{fill:url(#XMLID_15_);}
	.st40{fill:url(#XMLID_16_);}
	.st41{fill:url(#_x38__2_);}
	.st42{fill:url(#XMLID_17_);}
	.st43{fill:url(#XMLID_18_);}
	.st44{fill:url(#XMLID_19_);}
	.st45{fill:url(#XMLID_20_);}
	.st46{fill:url(#XMLID_21_);}
	.st47{fill:url(#XMLID_22_);}
	.st48{fill:url(#XMLID_23_);}
	.st49{fill:url(#XMLID_24_);}
	.st50{opacity:0.5;fill:#48B8E0;enable-background:new    ;}
	.st51{opacity:0.9;fill:#31CBF4;enable-background:new    ;}
	.st52{opacity:0.5;fill:url(#XMLID_25_);enable-background:new    ;}
	.st53{opacity:0.5;fill:url(#XMLID_26_);enable-background:new    ;}
	.st54{opacity:0.5;fill:url(#XMLID_27_);enable-background:new    ;}
	.st55{fill:url(#XMLID_28_);}
	.st56{fill:#003E80;}
	.st57{fill:url(#XMLID_29_);}
	.st58{fill:url(#XMLID_30_);}
	.st59{fill:#93E0E5;}
	.st60{fill:url(#XMLID_33_);}
	.st61{fill:url(#XMLID_34_);}
	.st62{fill:#353D3D;}
	.st63{fill:#80A4AA;}
	.st64{fill:url(#XMLID_35_);}
	.st65{fill:#E5D5B7;}
	.st66{fill:url(#XMLID_36_);}
	.st67{fill:url(#XMLID_37_);}
	.st68{fill:url(#XMLID_38_);}
	.st69{fill:url(#_x38__3_);}
	.st70{fill:url(#XMLID_39_);}
	.st71{fill:url(#XMLID_40_);}
	.st72{fill:url(#XMLID_41_);}
	.st73{fill:url(#XMLID_42_);}
	.st74{fill:url(#XMLID_43_);}
	.st75{fill:url(#XMLID_44_);}
	.st76{fill:url(#XMLID_45_);}
	.st77{fill:url(#XMLID_46_);}
	.st78{fill:#FFFAEB;}
	.st79{fill:url(#XMLID_47_);}
	.st80{fill:url(#XMLID_48_);}
	.st81{fill:#F4C951;}
	.st82{fill:url(#XMLID_49_);}
</style>
<g>
	
		<linearGradient id="XMLID_3_" gradientUnits="userSpaceOnUse" x1="-859.7992" y1="105.3586" x2="-730.1234" y2="105.3586" gradientTransform="matrix(-1 0 0 -1 -596.8983 330)">
		<stop  offset="0" style="stop-color:#006FE6"/>
		<stop  offset="1" style="stop-color:#0056B3"/>
	</linearGradient>
	<path id="XMLID_209_" class="st0" d="M0,230.7L0,230.7V219l19.8-1.7l167.7-96.5L373.9,228l16.1,0.3v10.9v0.1v0.1l0,0
		c0,1.1-0.6,2.3-1.7,2.9l-116.2,67.6c-48.9,28.4-98.3,22.5-147.4-5.7l-123-70.5C0.6,233.1,0,231.9,0,230.7L0,230.7L0,230.7z"/>
	<path id="XMLID_205_" class="st1" d="M388.2,224.6L187.5,109.1L1.8,215.9c-2.3,1.3-2.3,4.7,0,6.1l122.9,70.6
		c49,28.2,98.5,34.1,147.4,5.7l116.2-67.6C390.6,229.3,390.6,225.9,388.2,224.6z"/>
	<path id="XMLID_309_" class="st2" d="M1.8,215.9l185.7-106.8l188,108.1l0.6,8.6h-32.9l-13.9,20.8h-67.3L232,261.9h-71L59.4,207.5
		v8.3l-24.2,14.1H15.4l-13.6-7.8C-0.6,220.7-0.6,217.3,1.8,215.9z"/>
	
		<linearGradient id="XMLID_4_" gradientUnits="userSpaceOnUse" x1="-851.2627" y1="196.2017" x2="-834.6003" y2="234.8585" gradientTransform="matrix(-1 0 0 -1 -596.8983 330)">
		<stop  offset="0" style="stop-color:#006FE6"/>
		<stop  offset="1" style="stop-color:#4DA3FF"/>
	</linearGradient>
	<path id="XMLID_67_" class="st3" d="M148.3,16.6l25.2-14.5c0.8-0.7,1.7-1.2,2.6-1.5l0,0l0,0c3.2-1.2,7.1-0.8,11.3,1.7l112.8,64.5
		c10.8,6.2,19.5,22.8,19.5,37.2l0.1,107.2l-26.3,15.1l-11.1-36.9L168.3,124l-0.2-89.5l-16.5,1.1L148.3,16.6z"/>
	<path id="XMLID_6_" class="st4" d="M141.8,139.4l151.7,86.9l-0.1-107.2c0-14.3-8.7-31-19.5-37.2L161.1,17.6
		c-10.8-6.2-19.5,0.4-19.4,14.7L141.8,139.4z"/>
	
		<linearGradient id="XMLID_5_" gradientUnits="userSpaceOnUse" x1="-909.1323" y1="13.2808" x2="-867.536" y2="125.4102" gradientTransform="matrix(-1 0 0 -1 -596.8983 330)">
		<stop  offset="0" style="stop-color:#0056B3"/>
		<stop  offset="1" style="stop-color:#003E80"/>
	</linearGradient>
	<path id="XMLID_299_" class="st5" d="M243.2,184.2l29.5,17c2.1,1.2,3.8-0.1,3.8-2.9V164c0-2.8-1.7-6.1-3.8-7.3l-29.5-17
		c-2.1-1.2-3.8,0.1-3.8,2.9v34.3C239.4,179.8,241.1,183,243.2,184.2z"/>
	
		<linearGradient id="XMLID_7_" gradientUnits="userSpaceOnUse" x1="-880.767" y1="140.5741" x2="-874.0646" y2="159.7675" gradientTransform="matrix(-1 0 0 -1 -596.8983 330)">
		<stop  offset="0" style="stop-color:#FFF5EE"/>
		<stop  offset="1" style="stop-color:#B28A7F"/>
	</linearGradient>
	<path id="XMLID_709_" class="st6" d="M285.8,195.1l-3.2-1.8c-0.7-0.4-1.2-1.4-1.2-2.3v-4.3c0-0.9,0.5-1.3,1.2-0.9l3.2,1.8
		c0.7,0.4,1.2,1.4,1.2,2.3v4.3C287,195.1,286.5,195.5,285.8,195.1z"/>
	
		<linearGradient id="XMLID_8_" gradientUnits="userSpaceOnUse" x1="22.8323" y1="142.059" x2="22.9023" y2="141.9248" gradientTransform="matrix(1.053 0 0 -1 260.3234 330)">
		<stop  offset="0" style="stop-color:#EFE1DA"/>
		<stop  offset="1" style="stop-color:#B28A7F"/>
	</linearGradient>
	<path id="XMLID_708_" class="st7" d="M284.3,188C284.3,188,284.4,188,284.3,188c0.1,0.1,0.1,0.1,0.2,0.1L284.3,188z"/>
	
		<linearGradient id="XMLID_9_" gradientUnits="userSpaceOnUse" x1="20.86" y1="141.1501" x2="23.1684" y2="136.7194" gradientTransform="matrix(1.053 0 0 -1 260.3234 330)">
		<stop  offset="0" style="stop-color:#EFE1DA"/>
		<stop  offset="1" style="stop-color:#B28A7F"/>
	</linearGradient>
	<path id="XMLID_707_" class="st8" d="M285.1,192.3v-2.8c0-0.5-0.3-1.1-0.7-1.4c-0.2-0.1-0.3-0.1-0.4,0l0,0h-0.1l0,0l-2.1,1.3l0.8,5
		l2.2-1.4l0,0C284.9,192.9,285.1,192.7,285.1,192.3z"/>
	<path id="XMLID_705_" class="st9" d="M282.1,194.3l0.2,0.1c-0.4-0.3-0.8-0.9-0.8-1.5v-2.8c0-0.6,0.3-0.8,0.8-0.6l-0.2-0.1
		c0.4,0.3,0.8,0.9,0.8,1.5v2.8C282.9,194.2,282.5,194.5,282.1,194.3z"/>
	<path id="XMLID_124_" class="st10" d="M247.6,222.9l-0.3-1.5l16.3,10.3c4.2,2.2,7.5,0.1,7.7,0c0,0,3.1-1.8,7.2-4.3
		c3.7-2.3,3-6.7,3-7v-28.7h1.2v28.5c0,0.2,0.9,5.3-3.5,8.1c-4.1,2.5-7.2,4.4-7.2,4.4c-0.2,0.1-4,2.5-8.9,0L247.6,222.9z"/>
	<path id="XMLID_97_" class="st11" d="M225.9,185.9c-3.6-2.5-8-5.4-13-8.2c-4.3-2.4-8.3-4.4-11.7-5.9c-0.1-0.4-0.1-0.8-0.2-1.2
		c-1.2-7.5,4.1-18.2,4.1-18.2l23,10.9c0,0,1.8,10.2-1,18.7C226.5,183.4,226.2,184.7,225.9,185.9z"/>
	<path id="XMLID_96_" class="st12" d="M195.2,164.3c0,0-0.6,1.1-1.6,2.3c-1,1.2-1.3,3-1.1,4c0.3,1.3,0.8,2,1.6,2.9
		c0.5,0.5,0.5,0.5,0.8,0.6c0.5,0.2,1-0.2,1.1-0.7l1.2-3.2c0,0,0.3-1.4,0.9-1.2c0.6,0.2,0.6,1.8,0.6,1.8l1.5,0.5c0,0,0.2-2.3-0.1-3.8
		c-0.2-1.5-0.3-3.1-0.3-3.1L195.2,164.3L195.2,164.3z"/>
	<path id="XMLID_95_" class="st13" d="M200.3,166.1c0,0-3.2-0.6-4.3-1.3c-0.8-0.5-0.7-0.4-0.7-0.4s1.5-24.6,2.9-28.6
		c1.2-3.3,6.5-18.2,8-19.4c1.5-1.2,5.9-2.2,4.7,3.2c-1.1,5.4-6,22-7.5,25.4C201.8,148.5,200.3,166.1,200.3,166.1z"/>
	<path id="XMLID_94_" class="st14" d="M219.1,171l11.2-2.7c0,0,2.2-0.8,1.5-3.9c-0.7-3.1-4.4-15.8-4.4-15.8s2.3-20.7,2.3-23.8
		s-1.4-6.7-3.2-7.9c-1.8-1.1-5.4-2.7-5.4-2.7l-7.3-0.6c0,0-5,1.1-6.7,1.9c-1.3,0.7-1.3,1.2-1.3,1.2l-1.4,18.9l0.7,4.2l-2.4,0.8
		l-4.2,24.5c0,0,0.1,2,0.9,4.6c0.3,1.1,1.5,1.9,1.5,1.9s3,1.5,3.3-0.1l1.4-17.9l4.2,16c0,0,0.5,2.7,3,2.5
		C215.3,172,219.1,171,219.1,171z"/>
	<path id="XMLID_93_" class="st14" d="M209.1,114.8c0,0.4-5.7,8.7-5.8,12.7c-0.1,4,1.1,8.1,1.1,8.1l12-1.3c0,0,2-4.7,1.7-5.2
		c-0.4-0.4-8.1-2.8-8.1-2.8l2.2-10.4L209.1,114.8z"/>
	<path id="XMLID_92_" class="st15" d="M212.4,111.3c0,0,0.6,1.9-0.1,4.7s-2.1,6.2-2.1,6.2v1.1c0,0,7.5-5,9.3-7.4
		c1.8-2.4-1.1-7.1-1.1-7.1l-6.3,0.8L212.4,111.3z"/>
	<path id="XMLID_91_" class="st16" d="M214.6,111.6c0,0-2.5,1.3-3.6,0c-1.1-1.3-2.5-4.5-2.2-8.3c0.3-3.7,2-6.1,2-6.1l8.8,4.7
		l-0.7,5.4l-0.4,1.4L214.6,111.6z"/>
	<path id="XMLID_90_" class="st13" d="M210.2,123.3l7.6-6.3l2.4-3.4c0,0,1.9,1.1,1.9,2.4c0,1.3-1.2,3.6-1.2,3.6l-2.7-2.4l1.9,2.9
		L210.2,123.3z"/>
	<path id="XMLID_82_" class="st17" d="M205.7,132.3C205.7,132.3,205.8,132.3,205.7,132.3c0.1,0,0.4,0.1-0.1-0.7
		c-0.5-0.8-0.5-0.8-0.5-0.8s-2.1-0.1-2.3-0.1s-0.9-1.2-0.9-1.2l3.1-0.3c0,0,1,0,1.7,0.6c0.7,0.6,2.3,3.2,2.3,3.2l1.4,1l-0.9,0.9
		C208.3,134.1,206.7,133,205.7,132.3z"/>
	<path id="XMLID_81_" class="st18" d="M197.1,136.3l8.6,5.1c0.5,0.3,1,0,1-0.7l-2.3-15c0-0.7-0.4-1.6-1-1.9l-8.6-5.1
		c-0.5-0.3-1,0-1,0.7l2.3,15C196.1,135.1,196.6,136,197.1,136.3z"/>
	<path id="XMLID_80_" class="st11" d="M195.8,136.9l8.6,5.1c0.5,0.3,1,0,1-0.7l-2.3-15c0-0.7-0.4-1.6-1-1.9l-8.6-5.1
		c-0.5-0.3-1,0-1,0.7l2.3,15C194.9,135.7,195.3,136.6,195.8,136.9z"/>
	<path id="XMLID_76_" class="st19" d="M197.4,124.3L197.4,124.3c0.6,0.2,0.9-0.2,0.8-0.8l-0.5-3.5c-0.1-0.7-0.6-1.4-1.2-1.6l0,0
		c-0.6-0.2-0.9,0.2-0.8,0.8l0.5,3.5C196.3,123.3,196.8,124,197.4,124.3z"/>
	<path id="XMLID_74_" class="st16" d="M200.5,131c0,0,2.3,1.1,3.4,1.4c0.7,0.2,1.4,0,1.7-0.1c1,0.7,2.6,1.7,3.9,2.6l-2.3,2.5
		c0,0-1.3-0.1-1.3,0c0,0.1-3.7-0.4-5-1.8c-1.2-1.3-0.9-1.7-1.4-3.6C198.9,130.2,200.5,131,200.5,131z"/>
	<path id="XMLID_73_" class="st13" d="M218.8,141.6c0-2.7,2.5-16.7,3.5-19.6c1.3-3.5,2.7-6.1,4.3-5c1.6,1,2.9,2.7,3.2,7.2
		c0.3,4.6-5.1,24.9-6.8,26.6c-1.7,1.7-2.7,1.5-4.4,0.1c-1.7-1.4-11.9-13.3-11.9-13.3s0.4-1.5,1.7-2.6c1.3-1.1,1.9-1.7,1.9-1.7
		L218.8,141.6z"/>
	<path id="XMLID_61_" class="st13" d="M210.2,123.3l-0.9-6.5l2.4-1.1l-2.6,0.4v-1.3c0,0,1.1-0.9,2.4-1.2c1-0.3,1.1,0.2,1.1,0.2v1.5
		L211,121L210.2,123.3z"/>
	<path id="XMLID_59_" class="st11" d="M224.3,116c0,0-4.3-0.8-4.8-1.9c-0.5-1,0.1-2.3-0.8-3.2c-0.8-0.9-1.4-2.7-0.4-4.9
		c0.9-2.2-5.1,0.1-7-4.2c-1.9-4.4-1-3.9-1-3.9s-0.3,0.3-0.6,1.4c-0.4,1-1.1,3.8-0.9,5.3c0.1,1.6-1.8-1.3-2-3.4
		c-0.2-2.1,0.5-4.5,1.4-5.6c0.9-1.1,2.1-0.5,2.1-0.5s0-0.4,2.1-1.6c1.7-0.9,5.2-1.3,7.8,1.1c2.6,2.4,4.7,6.9,3.8,11.2
		c-0.9,4.3,0.3,6.8,1.5,8c1.1,1.3,1.2,1.5,1.5,3C227.2,118.5,224.3,116,224.3,116z"/>
	<path id="XMLID_58_" class="st20" d="M194.9,122.9L194.9,122.9c0.6,0.2,0.9-0.2,0.8-0.8l-0.5-3.5c-0.1-0.7-0.6-1.4-1.2-1.6l0,0
		c-0.6-0.2-0.9,0.2-0.8,0.8l0.5,3.5C193.8,121.9,194.3,122.6,194.9,122.9z"/>
	<path id="XMLID_83_" class="st21" d="M217.2,132.2l1.2-3.1c0.2-0.4-0.1-0.9-0.5-1.1l-5.3-2.1c-0.4-0.2-1,0.1-1.1,0.5l-1.1,3.2
		c-0.1,0.4,0.1,0.9,0.5,1.1l5.2,2C216.5,132.9,217,132.7,217.2,132.2z"/>
	<path id="XMLID_283_" class="st22" d="M216.5,131.3l0.8-2.1c0.1-0.1,0-0.3-0.2-0.4l-1.7-0.7c-0.1-0.1-0.3,0-0.4,0.2l-0.8,2.1
		c0,0.1,0,0.3,0.2,0.3l1.7,0.7C216.3,131.5,216.4,131.5,216.5,131.3z"/>
	
		<rect id="XMLID_101_" x="212.9" y="126.6" transform="matrix(0.3523 -0.9359 0.9359 0.3523 18.451 282.2448)" class="st22" width="0.5" height="2.4"/>
	
		<rect id="XMLID_100_" x="212.5" y="127.4" transform="matrix(0.3523 -0.9359 0.9359 0.3523 17.4683 282.4565)" class="st22" width="0.5" height="2.4"/>
	
		<rect id="XMLID_98_" x="212.3" y="128.2" transform="matrix(0.3505 -0.9366 0.9366 0.3505 16.854 283.119)" class="st22" width="0.5" height="2.4"/>
	<path id="XMLID_88_" class="st23" d="M215.3,127.5l0.7-0.9l-1.6-0.6l0.1,1.3L215.3,127.5z"/>
	<path id="XMLID_89_" class="st24" d="M217.5,102.7l2.8-0.9c0.3-0.1,0.5-0.5,0.4-0.8v-0.1c-0.1-0.3-0.5-0.5-0.8-0.4l-2.8,0.9
		c-0.3,0.1-0.5,0.5-0.4,0.8v0.1C216.8,102.6,217.2,102.8,217.5,102.7z"/>
	
		<linearGradient id="XMLID_10_" gradientUnits="userSpaceOnUse" x1="-760.1819" y1="207.7071" x2="-718.8997" y2="207.0719" gradientTransform="matrix(-1 0 0 -1 -596.8983 330)">
		<stop  offset="0" style="stop-color:#A05810"/>
		<stop  offset="1" style="stop-color:#5E2E0D"/>
	</linearGradient>
	<path id="XMLID_2_" class="st25" d="M155.1,105.4v34l-30.3-11.3c0,0-12.3-11-10.7-12.8C115.7,113.4,155.1,105.4,155.1,105.4z"/>
	
		<linearGradient id="XMLID_11_" gradientUnits="userSpaceOnUse" x1="-845.7906" y1="141.6314" x2="-813.299" y2="141.1315" gradientTransform="matrix(-1 0 0 -1 -596.8983 330)">
		<stop  offset="0" style="stop-color:#A05810"/>
		<stop  offset="1" style="stop-color:#5E2E0D"/>
	</linearGradient>
	<path id="XMLID_31_" class="st26" d="M77,172.3L77,172.3v-54.6l28.2,6.1c0,0,128.8,69.7,130,70.4c1.3,0.6,26.8-1.1,26.8-1.1v55.4
		l0,0c-0.1,0.4-0.4,0.8-1,1.2l-15.6,9.1c-6.3,3.7-15.9,4.2-21.5,1L80.8,178.2C77.9,176.7,76.7,174.5,77,172.3z"/>
	<path id="XMLID_32_" class="st27" d="M82.2,110.1l15.6-9.1c0.3-0.2,0.6-0.3,1-0.4l22.8-12.5c1.8-1,4-1,5.7,0.1l26.9,15.4
		c1.2,0.7,1.2,2.5,0,3.2l-20.9,12l127.9,72.7c1.1,0.6,1,1.7-0.3,2.5l-15.6,9.1c-6.3,3.7-15.9,4.2-21.5,1L80.7,122.5
		C75.2,119.3,75.8,113.8,82.2,110.1z"/>
	<path id="XMLID_109_" class="st28" d="M273.1,209.1l-11.3-6.7v4.9l-20.7,12.5c0,0-2.4,1.6-5.8,1.8c-3.4,0.2-6.6-1.8-6.6-1.8
		L76.9,133.2v-8.1l-12,7.3l2.1,8.8l8.5,4.6l158.7,90c0,0,32.3-17.3,33.3-18.3C268.4,216.5,273.1,209.1,273.1,209.1z"/>
	<path id="XMLID_105_" class="st29" d="M64.9,144.4v-9.3l0,0c0.1,1.3,1,2.4,2.6,3.3l161.2,91.9c3.8,2.2,10.5,1.9,14.8-0.7l29.1-17.1
		c0.3-0.2,0.5-0.4,0.7-0.7l0,0l0.1,9.9l0,0c-0.1,0.3-0.3,0.6-0.7,0.8l-29.2,17.2c-4.4,2.6-11,2.9-14.8,0.7L67.5,148.5
		C65.6,147.5,64.7,146,64.9,144.4L64.9,144.4z"/>
	
		<linearGradient id="XMLID_12_" gradientUnits="userSpaceOnUse" x1="-844.9178" y1="144.312" x2="-816.925" y2="144.312" gradientTransform="matrix(-1 0 0 -1 -596.8983 330)">
		<stop  offset="0" style="stop-color:#AF6E27"/>
		<stop  offset="1" style="stop-color:#824C12"/>
	</linearGradient>
	<path id="XMLID_111_" class="st30" d="M64.9,141.6v-9.3l0,0c0.1,1.3,1,2.4,2.6,3.3l161.2,91.9c3.8,2.2,10.5,1.9,14.8-0.7l29.1-17.1
		c0.3-0.2,0.5-0.4,0.7-0.7l0,0l0.1,9.9l-0.7,0.8l0,0l-29.2,17.2c-4.4,2.6-11,2.9-14.8,0.7L67.5,145.7
		C65.6,144.6,64.7,143.1,64.9,141.6L64.9,141.6z"/>
	
		<linearGradient id="XMLID_13_" gradientUnits="userSpaceOnUse" x1="-940.5145" y1="68.9752" x2="-924.3819" y2="151.4817" gradientTransform="matrix(-1 0 0 -1 -596.8983 330)">
		<stop  offset="0" style="stop-color:#99865E"/>
		<stop  offset="1" style="stop-color:#EFE1C2"/>
	</linearGradient>
	<path id="XMLID_72_" class="st31" d="M319.9,200.4l-26.5-49.3l26.5-15.3l18.5,10.3c9.5,5.5,17.2,20.1,17.2,32.8v52.4l-26.5,15.3
		l-5-33.1l-4.2-2.4V200.4z"/>
	<path id="XMLID_57_" class="st32" d="M293.4,226.3l35.7,20.2v-52.4c0-12.6-7.7-27.3-17.2-32.8l-18.5-10.2V226.3z"/>
	<polygon id="XMLID_110_" class="st33" points="329.1,233.7 293.4,213.2 293.4,226.3 329.1,246.6 	"/>
	<polygon id="XMLID_112_" class="st34" points="355.6,218.7 329.1,233.7 329.1,246.6 355.6,231.3 	"/>
	
		<linearGradient id="XMLID_14_" gradientUnits="userSpaceOnUse" x1="241.1713" y1="121.812" x2="233.9272" y2="99.7137" gradientTransform="matrix(1.0353 0 0 -1 122.5148 330)">
		<stop  offset="0" style="stop-color:#E0C79D"/>
		<stop  offset="1" style="stop-color:#BC9F71"/>
	</linearGradient>
	<path id="XMLID_1201_" class="st35" d="M368.4,200.6l-2,1.1c-2.3,1.3-4.2,4.7-4.2,7.7v6.7l13.8,7.7l6.2-15.5L368.4,200.6z"/>
	<path id="XMLID_1200_" class="st36" d="M382.2,220.4l-6.2,3.4v-6.7c0-3,1.9-6.4,4.2-7.7l2-1.1V220.4z"/>
	<path id="XMLID_1199_" class="st37" d="M362.2,216.1v0.9c0,0.7,0.4,1.4,1,1.7l12.8,7.1v-2L362.2,216.1z"/>
	<path id="XMLID_1198_" class="st38" d="M382.2,220.4v0.9c0,0.8-0.5,1.5-1.2,1.9l-5,2.6v-2L382.2,220.4z"/>
	
		<linearGradient id="XMLID_15_" gradientUnits="userSpaceOnUse" x1="-676.7009" y1="113.4057" x2="-666.5449" y2="165.3463" gradientTransform="matrix(-1 0 0 -1 -596.8983 330)">
		<stop  offset="0" style="stop-color:#99865E"/>
		<stop  offset="1" style="stop-color:#EFE1C2"/>
	</linearGradient>
	<path id="XMLID_260_" class="st39" d="M64.9,178.4l-16.7-31l16.7-9.6l11.7,6.5c6,3.4,10.8,12.7,10.8,20.6v33l-16.7,9.6l-3.2-20.9
		l-2.6-1.5V178.4z"/>
	<path id="XMLID_259_" class="st32" d="M48.2,194.8l22.5,12.7v-33c0-8-4.9-17.2-10.8-20.6l-11.7-6.5V194.8z"/>
	<polygon id="XMLID_257_" class="st33" points="70.7,199.4 48.2,186.5 48.2,194.8 70.7,207.5 	"/>
	<polygon id="XMLID_223_" class="st34" points="87.4,190 70.7,199.4 70.7,207.5 87.4,197.9 	"/>
	
		<linearGradient id="XMLID_16_" gradientUnits="userSpaceOnUse" x1="-913.2213" y1="188.5354" x2="-931.5625" y2="188.5354" gradientTransform="matrix(-1 0 0 -1 -596.8983 330)">
		<stop  offset="0" style="stop-color:#99865E"/>
		<stop  offset="1" style="stop-color:#EFE1C2"/>
	</linearGradient>
	<path id="XMLID_1206_" class="st40" d="M317.7,128.9h7.6c0,0,3.1,1.8,3.2,4.8c0,3-3.2,18.1-3.2,18.1c0,1.2-1.6,2.2-3.6,2.2
		s-3.6-1-3.6-2.2c0,0-3.6-15.1-3.7-18.1C314.3,130.7,317.7,128.9,317.7,128.9z"/>
	
		<linearGradient id="_x38__2_" gradientUnits="userSpaceOnUse" x1="-871.1313" y1="103.5353" x2="-891.095" y2="117.4954" gradientTransform="matrix(-0.9933 0.1157 -0.1157 -0.9933 -553.1441 348.1955)">
		<stop  offset="0" style="stop-color:#9ED353"/>
		<stop  offset="0.9839" style="stop-color:#345B0E"/>
	</linearGradient>
	<path id="_x38_" class="st41" d="M322.9,126.8c0,0,0.5,4-2.9,5.5c-3.4,1.5-5.8,2.3-6,3.7c-0.1,1.4-2.2-3.5-1.2-6.9
		c0.9-3,3.6-5.2,6.7-5C322.7,124.2,322.9,126.8,322.9,126.8z"/>
	
		<linearGradient id="XMLID_17_" gradientUnits="userSpaceOnUse" x1="-939.8019" y1="199.5211" x2="-910.1091" y2="199.5211" gradientTransform="matrix(-1 0 0 -1 -596.8983 330)">
		<stop  offset="0" style="stop-color:#9ED353"/>
		<stop  offset="0.9839" style="stop-color:#345B0E"/>
	</linearGradient>
	<path id="XMLID_1204_" class="st42" d="M319,125.5c0,0-1.2,4.9,3.2,7.2c4.5,2.3,7.8,3.6,7.8,5.4c0,1.8,3.5-4.1,2.5-8.5
		c-0.8-3.9-4.3-6.9-8.6-7.1C319.7,122.3,319,125.5,319,125.5z"/>
	
		<linearGradient id="XMLID_18_" gradientUnits="userSpaceOnUse" x1="-892.7765" y1="192.7377" x2="-913.7868" y2="207.4297" gradientTransform="matrix(-1 0 0 -1 -596.8983 330)">
		<stop  offset="0" style="stop-color:#9ED353"/>
		<stop  offset="0.9839" style="stop-color:#345B0E"/>
	</linearGradient>
	<path id="XMLID_1203_" class="st43" d="M322.2,121.6c0,0,0.1,5-4.4,6.4c-4.5,1.4-7.6,2.1-8,3.8c-0.4,1.7-2.2-4.7-0.4-8.8
		c1.6-3.7,5.3-5.9,9.1-5.3C322.4,118.4,322.2,121.6,322.2,121.6z"/>
	
		<linearGradient id="XMLID_19_" gradientUnits="userSpaceOnUse" x1="-876.9785" y1="9.3863" x2="-861.1382" y2="9.3863" gradientTransform="matrix(-0.9556 0.2948 -0.2948 -0.9556 -493.9567 387.2618)">
		<stop  offset="0" style="stop-color:#9ED353"/>
		<stop  offset="0.9839" style="stop-color:#345B0E"/>
	</linearGradient>
	<path id="XMLID_1209_" class="st44" d="M325.8,121.8c0,0,0.1,2.6,2.7,3.1c2.6,0.5,4.4,0.6,4.6,1.5c0.3,0.9,1.1-2.5,0-4.6
		c-1-1.8-3.2-2.7-5.3-2.2C325.6,120.1,325.8,121.8,325.8,121.8z"/>
	
		<linearGradient id="XMLID_20_" gradientUnits="userSpaceOnUse" x1="239.4571" y1="883.6763" x2="251.4574" y2="883.6763" gradientTransform="matrix(0.4962 0.8682 0.9052 -0.5173 -607.955 357.695)">
		<stop  offset="0" style="stop-color:#9ED353"/>
		<stop  offset="0.9839" style="stop-color:#345B0E"/>
	</linearGradient>
	<path id="XMLID_1211_" class="st45" d="M318.7,118.2c0,0-1.5,1.4-3.2,0.4c-1.7-1.1-2.8-1.9-3.4-1.5c-0.6,0.4,0.8-2,2.5-2.6
		c1.5-0.5,3.3,0.1,4.2,1.5C319.7,117.3,318.7,118.2,318.7,118.2z"/>
	
		<linearGradient id="XMLID_21_" gradientUnits="userSpaceOnUse" x1="-636.8391" y1="848.9996" x2="-626.588" y2="863.924" gradientTransform="matrix(-0.3603 -0.89 1.0932 -0.4425 -849.6257 -57.8879)">
		<stop  offset="0" style="stop-color:#9ED353"/>
		<stop  offset="0.9839" style="stop-color:#345B0E"/>
	</linearGradient>
	<path id="XMLID_1212_" class="st46" d="M322,120.4c0.6,2.2-1.3,5.1-4.1,5.7c-2.7,0.5-6.7,1.2-6.7,1.2s-0.2-6,2-7.8
		c1.3-1.1,4.3-2.9,6.3-2.3C321.5,117.6,322,120.4,322,120.4z"/>
	
		<linearGradient id="XMLID_22_" gradientUnits="userSpaceOnUse" x1="-929.0663" y1="197.9967" x2="-913.1039" y2="221.2359" gradientTransform="matrix(-1 0 0 -1 -596.8983 330)">
		<stop  offset="0" style="stop-color:#9ED353"/>
		<stop  offset="0.9839" style="stop-color:#345B0E"/>
	</linearGradient>
	<path id="XMLID_1210_" class="st47" d="M324.6,113.2c3.8,0.4,7.2,4.4,6.3,8.1c-0.9,3.7-2.4,9.2-2.4,9.2s-6.8-4.3-9.2-5.6
		c-2.4-1.3-3.6-7.9-1.5-10.1C320,112.5,324.6,113.2,324.6,113.2z"/>
	
		<linearGradient id="XMLID_23_" gradientUnits="userSpaceOnUse" x1="-239.0302" y1="-371.3847" x2="-215.5398" y2="-371.3847" gradientTransform="matrix(-0.185 0.9827 -0.9827 -0.185 -79.9591 267.527)">
		<stop  offset="0" style="stop-color:#9ED353"/>
		<stop  offset="0.9839" style="stop-color:#345B0E"/>
	</linearGradient>
	<path id="XMLID_1207_" class="st48" d="M321.8,117.7c0,0,4,1.8,6.6-1.6c2.7-3.4,4.3-6,5.8-5.7c1.5,0.3-2.9-3.6-6.8-3.5
		c-3.5,0.1-6.5,2.5-7.4,6.2C319.2,116.7,321.8,117.7,321.8,117.7z"/>
	
		<linearGradient id="XMLID_24_" gradientUnits="userSpaceOnUse" x1="232.6237" y1="885.8848" x2="248.4945" y2="885.8848" gradientTransform="matrix(0.4962 0.8682 0.9052 -0.5173 -607.955 357.695)">
		<stop  offset="0" style="stop-color:#9ED353"/>
		<stop  offset="0.9839" style="stop-color:#345B0E"/>
	</linearGradient>
	<path id="XMLID_1208_" class="st49" d="M321,115.1c0,0-2.4,2.3-5.1,0.6c-2.7-1.7-4.5-3-5.5-2.5c-1,0.6,1.3-3.2,4-4.1
		c2.5-0.8,5.2,0.1,6.7,2.4C322.6,113.8,321,115.1,321,115.1z"/>
	<path id="XMLID_113_" class="st50" d="M82.2,102.5l15.6-9.1c0.3-0.2,0.6-0.3,1-0.4l22.8-12.5c1.8-1,4-1,5.7,0.1L154.2,96
		c1.2,0.7,1.2,2.5,0,3.2l-20.9,12l127.9,72.7c1.1,0.6,1,1.7-0.3,2.5l-15.6,9.1c-6.3,3.7-15.9,4.2-21.5,1L80.7,114.9
		C75.2,111.7,75.8,106.2,82.2,102.5z"/>
	<path id="XMLID_122_" class="st51" d="M77,112.6v-2.5l0,0c0.2,1.8,1.4,3.5,3.7,4.8l143.2,81.6c5.5,3.1,15.1,2.7,21.5-1l15.6-9.1
		c0.5-0.3,0.8-0.6,0.9-0.9c0.1,0,0.1,0,0.1,0v3.4l0,0c-0.1,0.4-0.4,0.8-1,1.2l-15.6,9.1c-6.3,3.7-15.9,4.2-21.5,1L80.7,118.5
		C78,117,76.8,114.8,77,112.6L77,112.6z"/>
	<path id="XMLID_123_" class="st51" d="M154.2,102.7L136.3,113l-3.1-1.8l20.9-12c0.6-0.3,0.9-0.9,0.9-1.4l0,0l0.1,3.3v0.1v0.2l0,0
		C155.1,101.8,154.8,102.3,154.2,102.7z"/>
	
		<linearGradient id="XMLID_25_" gradientUnits="userSpaceOnUse" x1="-829.8651" y1="83.717" x2="-782.2108" y2="176.3597" gradientTransform="matrix(-1 0 0 -1 -596.8983 330)">
		<stop  offset="0" style="stop-color:#A05810"/>
		<stop  offset="1" style="stop-color:#5FD6F2"/>
	</linearGradient>
	<polygon id="XMLID_292_" class="st52" points="221.2,194.9 172,166.8 157.6,124.9 204.3,151.5 	"/>
	
		<linearGradient id="XMLID_26_" gradientUnits="userSpaceOnUse" x1="-783.9199" y1="124.4516" x2="-734.266" y2="213.0954" gradientTransform="matrix(-1 0 0 -1 -596.8983 330)">
		<stop  offset="0" style="stop-color:#A05810"/>
		<stop  offset="1" style="stop-color:#5FD6F2"/>
	</linearGradient>
	<path id="XMLID_287_" class="st53" d="M159.4,159.9l-22-12.6L120.5,81l1.1-0.5c1.8-1,4-1,5.7,0.1l8.6,4.9l1.3,0.6l5.8,19.4
		l-9.8,5.5l12.9,7.5L159.4,159.9L159.4,159.9z"/>
	
		<linearGradient id="XMLID_27_" gradientUnits="userSpaceOnUse" x1="-845.4424" y1="117.0664" x2="-817.5746" y2="164.3043" gradientTransform="matrix(-1 0 0 -1 -596.8983 330)">
		<stop  offset="0" style="stop-color:#A05810"/>
		<stop  offset="1" style="stop-color:#5FD6F2"/>
	</linearGradient>
	<path id="XMLID_293_" class="st54" d="M239.6,197.6c-2.2,0.6-4.6,0.9-6.9,1c-3.2-8.7-10.5-27.3-15.1-39.2l9.8,5.3L239.6,197.6z"/>
	
		<linearGradient id="XMLID_28_" gradientUnits="userSpaceOnUse" x1="-636.6288" y1="161.7081" x2="-621.1328" y2="193.2001" gradientTransform="matrix(-1 0 0 -1 -596.8983 330)">
		<stop  offset="0" style="stop-color:#006FE6"/>
		<stop  offset="0.9946" style="stop-color:#4DA3FF"/>
	</linearGradient>
	<path id="XMLID_232_" class="st55" d="M28.1,150.9L7.5,128.4l24.2-14.2l14.4,8c7.4,4.2,13.4,15.7,13.4,25.5v65l-24.2,14.2
		l-3.9-65.8l-3.3-1.9L28.1,150.9z"/>
	<path id="XMLID_231_" class="st4" d="M7.5,211.1l27.8,15.7v-65c0-9.8-6-21.2-13.4-25.5l-14.4-8V211.1z"/>
	<polygon id="XMLID_184_" class="st33" points="35.2,219.9 7.5,203.9 7.5,214.1 35.3,229.8 	"/>
	<polygon id="XMLID_182_" class="st34" points="59.4,206 35.2,219.9 35.3,229.8 59.4,215.7 	"/>
	<path id="XMLID_236_" class="st56" d="M42,174.1l12.4-7.1c0.6-0.3,1.1-1.2,1.1-2v-9.5c0-0.8-0.5-1.1-1-0.8l-12.4,7.1
		c-0.6,0.3-1.1,1.2-1.1,2v9.5C41,174,41.4,174.4,42,174.1z"/>
	<path id="XMLID_237_" class="st32" d="M52.8,159.6l0.4-0.2c0.4-0.2,0.8-0.9,0.8-1.5v-0.5c0-0.6-0.4-0.8-0.8-0.6l-0.4,0.2
		c-0.4,0.2-0.8,0.9-0.8,1.5v0.5C52,159.6,52.4,159.9,52.8,159.6z"/>
	<path id="XMLID_261_" class="st32" d="M50.3,161.1l0.4-0.2c0.4-0.2,0.8-0.9,0.8-1.5v-0.5c0-0.6-0.4-0.8-0.8-0.6l-0.4,0.2
		c-0.4,0.2-0.8,0.9-0.8,1.5v0.5C49.5,161.1,49.9,161.3,50.3,161.1z"/>
	<path id="XMLID_262_" class="st32" d="M47.8,162.5l0.4-0.2c0.4-0.2,0.8-0.9,0.8-1.5v-0.5c0-0.6-0.4-0.8-0.8-0.6l-0.4,0.2
		c-0.4,0.2-0.8,0.9-0.8,1.5v0.5C47,162.5,47.4,162.8,47.8,162.5z"/>
	<path id="XMLID_265_" class="st32" d="M52.8,163l0.4-0.2c0.4-0.2,0.8-0.9,0.8-1.5v-0.5c0-0.6-0.4-0.8-0.8-0.6l-0.4,0.2
		c-0.4,0.2-0.8,0.9-0.8,1.5v0.5C52,163,52.4,163.2,52.8,163z"/>
	<path id="XMLID_264_" class="st32" d="M50.3,164.4l0.4-0.2c0.4-0.2,0.8-0.9,0.8-1.5v-0.5c0-0.6-0.4-0.8-0.8-0.6l-0.4,0.2
		c-0.4,0.2-0.8,0.9-0.8,1.5v0.5C49.5,164.4,49.8,164.7,50.3,164.4z"/>
	<path id="XMLID_263_" class="st32" d="M47.8,165.9l0.4-0.2c0.4-0.2,0.8-0.9,0.8-1.5v-0.5c0-0.6-0.4-0.8-0.8-0.6l-0.4,0.2
		c-0.4,0.2-0.8,0.9-0.8,1.5v0.5C47,165.9,47.3,166.1,47.8,165.9z"/>
	<path id="XMLID_268_" class="st32" d="M52.8,166.4l0.4-0.2c0.4-0.2,0.8-0.9,0.8-1.5v-0.5c0-0.6-0.4-0.8-0.8-0.6l-0.4,0.2
		c-0.4,0.2-0.8,0.9-0.8,1.5v0.5C52,166.4,52.4,166.6,52.8,166.4z"/>
	<path id="XMLID_267_" class="st32" d="M50.3,167.8l0.4-0.2c0.4-0.2,0.8-0.9,0.8-1.5v-0.5c0-0.6-0.4-0.8-0.8-0.6l-0.4,0.2
		c-0.4,0.2-0.8,0.9-0.8,1.5v0.5C49.5,167.8,49.8,168.1,50.3,167.8z"/>
	<path id="XMLID_266_" class="st32" d="M47.8,169.3l0.4-0.2c0.4-0.2,0.8-0.9,0.8-1.5v-0.5c0-0.6-0.4-0.8-0.8-0.6l-0.4,0.2
		c-0.4,0.2-0.8,0.9-0.8,1.5v0.5C47,169.3,47.3,169.5,47.8,169.3z"/>
	<path id="XMLID_269_" class="st32" d="M43.4,171.8l2-1.2c0.4-0.2,0.8-0.9,0.8-1.5v-7.3c0-0.6-0.4-0.8-0.8-0.6l-2,1.2
		c-0.4,0.2-0.8,0.9-0.8,1.5v7.3C42.6,171.8,43,172,43.4,171.8z"/>
	<path id="XMLID_288_" class="st56" d="M28.5,136.2l16.6-9.6c4.9,4,8.8,10.9,10.3,17.9l-16.5,9.4C37.4,146.9,33.4,140,28.5,136.2z"
		/>
	<path id="XMLID_290_" class="st4" d="M55.5,144.5l-4.7,2.7l-6.4-11.1l0.8-9.4C50,130.5,54,137.5,55.5,144.5z"/>
	
		<linearGradient id="XMLID_29_" gradientUnits="userSpaceOnUse" x1="-634.6613" y1="197.2122" x2="-603.3359" y2="241.3674" gradientTransform="matrix(-1 0 0 -1 -596.8983 330)">
		<stop  offset="0" style="stop-color:#006FE6"/>
		<stop  offset="0.9946" style="stop-color:#1A89FF"/>
	</linearGradient>
	<path id="XMLID_289_" class="st57" d="M33.8,142c-1.6-2.3-3.3-4.3-5.3-5.8l16.6-9.6l-0.8,9.4C44.4,136,35.8,141.2,33.8,142z"/>
	
		<linearGradient id="XMLID_30_" gradientUnits="userSpaceOnUse" x1="-636.735" y1="165.4478" x2="-639.7342" y2="191.4411" gradientTransform="matrix(-1 0 0 -1 -596.8983 330)">
		<stop  offset="0" style="stop-color:#0A5975"/>
		<stop  offset="1" style="stop-color:#1BAACC"/>
	</linearGradient>
	<path id="XMLID_291_" class="st58" d="M43.9,137.7l5.7,10.1l0,0L39,153.9c-0.9-3.8-2.4-7.5-4.5-10.8L43.9,137.7z"/>
	<polygon id="XMLID_284_" class="st59" points="48.9,146.8 35,142.8 39.3,140.4 46.7,142.8 	"/>
	
		<linearGradient id="XMLID_33_" gradientUnits="userSpaceOnUse" x1="-677.6904" y1="118.5534" x2="-637.7205" y2="118.5534" gradientTransform="matrix(-1 0 0 -1 -596.8983 330)">
		<stop  offset="0" style="stop-color:#99865E"/>
		<stop  offset="1" style="stop-color:#EFE1C2"/>
	</linearGradient>
	<polygon id="XMLID_285_" class="st60" points="59.4,206 59.4,203 35.2,216.9 35.2,219.9 	"/>
	
		<linearGradient id="XMLID_34_" gradientUnits="userSpaceOnUse" x1="-662.7933" y1="119.5531" x2="-578.864" y2="119.5531" gradientTransform="matrix(-1 0 0 -1 -596.8983 330)">
		<stop  offset="0" style="stop-color:#99865E"/>
		<stop  offset="1" style="stop-color:#EFE1C2"/>
	</linearGradient>
	<polygon id="XMLID_286_" class="st61" points="35.2,216.9 7.5,201 7.5,203.9 35.2,219.9 	"/>
	<path id="XMLID_280_" class="st56" d="M11.9,198.3l6.2,3.5c0.6,0.3,1.2-0.1,1.2-0.7v-17c0-2.8-1.7-6-3.8-7.2l-2.9-1.6
		c-0.6-0.3-1.2,0.1-1.2,0.7v21.6C11.4,197.8,11.6,198.1,11.9,198.3z"/>
	<path id="XMLID_753_" class="st32" d="M133.9,110.6c0-0.7,0.9-8.8,8-13.9c7.1-5.1,13.2-6.5,17.8-5.3c4.7,1.2,6.2,2.3,6.2,2.3
		l2.5,22.5c0,0,0.3,1.8-2.5,3.4c-2.7,1.6-12.6,7.3-12.6,7.3s-2.4,1.6-4.8,0.2c-1.4-0.8-6.1-3.6-9.7-5.7c-2.8-1.6-4.5-4.5-4.7-7.7
		L133.9,110.6z"/>
	<path id="XMLID_752_" class="st62" d="M150.5,120.4l14-8.1c0.5-0.4,0.9-1.4,0.8-2.1l-1.2-12c-0.1-0.8-0.6-1.1-1.1-0.7l-14,8.1
		c-0.5,0.4-0.9,1.4-0.8,2.1l1.2,12C149.5,120.5,150,120.8,150.5,120.4z"/>
	<path id="XMLID_750_" class="st63" d="M166.2,96.3L166.2,96.3L166.2,96.3z"/>
	
		<linearGradient id="XMLID_35_" gradientUnits="userSpaceOnUse" x1="-736.5446" y1="186.4436" x2="-747.5466" y2="233.4516" gradientTransform="matrix(-1 0 0 -1 -596.8983 330)">
		<stop  offset="0" style="stop-color:#0A5975"/>
		<stop  offset="1" style="stop-color:#1BAACC"/>
	</linearGradient>
	<path id="XMLID_749_" class="st64" d="M139,96.8c7.1-5.1,14.9-8.4,22.2-6.2c4.6,1.4,4.7,3,4.7,3l0.2,2.1c-0.1-0.5-0.3-1.3-1.2-1.6
		c-1.2-0.4-3.3,0.6-3.3,0.6l-13.9,7.7c0,0-2.7,1.9-2.5,4.8c0.2,2.8,1.9,17.7,1.9,19.1c-2.6-1.5-7.7-4.5-10.6-6.2
		c-1.4-0.8-2.3-2.3-2.4-4l-0.6-6C133.5,108,131.9,101.9,139,96.8z"/>
	<path id="XMLID_282_" class="st20" d="M156.5,120.9l6.5-3.8c0.3-0.2,0.4-0.6,0.4-1l0,0c0-0.4-0.3-0.5-0.5-0.3l-6.5,3.8
		c-0.3,0.2-0.4,0.6-0.4,1l0,0C156,120.9,156.2,121.1,156.5,120.9z"/>
	<path id="XMLID_281_" class="st19" d="M154.7,122.1l0.4-0.3c0.3-0.2,0.4-0.6,0.4-1l0,0c0-0.4-0.3-0.5-0.5-0.3l-0.4,0.3
		c-0.3,0.2-0.4,0.6-0.4,1l0,0C154.2,122.2,154.4,122.3,154.7,122.1z"/>
	<polygon id="XMLID_294_" class="st65" points="248.3,175.9 231.5,185.5 219.2,178.3 235.6,168.7 	"/>
	
		<linearGradient id="XMLID_36_" gradientUnits="userSpaceOnUse" x1="-836.7825" y1="151.7949" x2="-811.2186" y2="151.7949" gradientTransform="matrix(-1 0 0 -1 -596.8983 330)">
		<stop  offset="0" style="stop-color:#EFE1DA"/>
		<stop  offset="1" style="stop-color:#725C57"/>
	</linearGradient>
	<path id="XMLID_415_" class="st66" d="M206.3,180.6l7.1,4.1c0.9,0.5,2.5,0.5,3.6-0.1l12-6.7c1.1-0.6,1.2-1.5,0.3-2.1l-7.1-4.1
		c-0.9-0.5-2.5-0.5-3.6,0.1l-12,6.7C205.5,179.2,205.4,180.1,206.3,180.6z"/>
	<path id="XMLID_414_" class="st9" d="M206.3,179.5l7.1,4.1c0.9,0.5,2.5,0.5,3.6-0.1l12-6.7c1.1-0.6,1.2-1.5,0.3-2.1l-7.1-4.1
		c-0.9-0.5-2.5-0.5-3.6,0.1l-12,6.7C205.5,178,205.4,179,206.3,179.5z"/>
	<path id="XMLID_411_" class="st11" d="M208.2,179.1l5.9,3.4c0.8,0.4,2.1,0.4,3-0.1l10-5.6c0.9-0.5,1-1.3,0.2-1.7l-5.9-3.4
		c-0.8-0.4-2.1-0.4-3,0.1l-10,5.6C207.5,177.9,207.4,178.6,208.2,179.1z"/>
	<path id="XMLID_296_" class="st32" d="M50,229.9c0,3.8,5.2,6.8,11.6,6.8s11.6-3,11.6-6.8c0-3.8-5.2-6.8-11.6-6.8
		C55.1,223.1,50,226.2,50,229.9z M56.1,229.9c0-1.8,2.4-3.2,5.4-3.2c3,0,5.4,1.4,5.4,3.2s-2.4,3.2-5.4,3.2
		C58.6,233.1,56.1,231.7,56.1,229.9z"/>
	
		<linearGradient id="XMLID_37_" gradientUnits="userSpaceOnUse" x1="-833.1296" y1="-18.5798" x2="-813.1348" y2="35.4065" gradientTransform="matrix(-1 0 0 -1 -596.8983 330)">
		<stop  offset="0" style="stop-color:#99865E"/>
		<stop  offset="1" style="stop-color:#EFE1C2"/>
	</linearGradient>
	<path id="XMLID_307_" class="st67" d="M229.9,314.6v11.7c-2.6,0.5-5.2,0.9-7.8,1.3l-0.2-11.7l2.8-3.2L229.9,314.6z"/>
	<path id="XMLID_311_" class="st32" d="M112.4,252.1l109.5,63.7c2.7-0.3,5.4-0.8,8-1.3l-108.3-62.4l18.3-10.6
		c1.7,0.6,3.7,0.9,5.8,0.9c6.4,0,11.6-3,11.6-6.8s-5.2-6.8-11.6-6.8c-6.4,0-11.6,3-11.6,6.8c0,1.1,0.5,2.1,1.2,3.1L112.4,252.1z
		 M145.8,238.8c-3,0-5.4-1.4-5.4-3.2c0-1.8,2.4-3.2,5.4-3.2c3,0,5.4,1.4,5.4,3.2S148.8,238.8,145.8,238.8z"/>
	
		<linearGradient id="XMLID_38_" gradientUnits="userSpaceOnUse" x1="-687.3657" y1="223.9764" x2="-701.8309" y2="223.9764" gradientTransform="matrix(-1 0 0 -1 -596.8983 330)">
		<stop  offset="0" style="stop-color:#99865E"/>
		<stop  offset="1" style="stop-color:#EFE1C2"/>
	</linearGradient>
	<path id="XMLID_181_" class="st68" d="M96.6,98.1h7.6c0,0,3.1,1.8,3.2,4.8c0,3-3.2,8.8-3.2,8.8c0,1.2-1.6,2.2-3.6,2.2
		c-2,0-3.6-1-3.6-2.2c0,0-3.6-5.9-3.7-8.8C93.3,100,96.6,98.1,96.6,98.1z"/>
	
		<linearGradient id="_x38__3_" gradientUnits="userSpaceOnUse" x1="-655.1115" y1="159.5839" x2="-675.075" y2="173.544" gradientTransform="matrix(-0.9933 0.1157 -0.1157 -0.9933 -553.1441 348.1955)">
		<stop  offset="0" style="stop-color:#9ED353"/>
		<stop  offset="0.9839" style="stop-color:#345B0E"/>
	</linearGradient>
	<path id="_x38__1_" class="st69" d="M101.9,96.1c0,0,0.5,4-2.9,5.5c-3.4,1.5-5.8,2.3-6,3.7c-0.1,1.4-2.2-3.5-1.2-6.9
		c0.9-3,3.6-5.2,6.7-5C101.7,93.5,101.9,96.1,101.9,96.1z"/>
	
		<linearGradient id="XMLID_39_" gradientUnits="userSpaceOnUse" x1="-724.6934" y1="230.3099" x2="-695.0006" y2="230.3099" gradientTransform="matrix(-1 0 0 -1 -596.8983 330)">
		<stop  offset="0" style="stop-color:#9ED353"/>
		<stop  offset="0.9839" style="stop-color:#345B0E"/>
	</linearGradient>
	<path id="XMLID_180_" class="st70" d="M98,94.7c0,0-1.2,4.9,3.2,7.2c4.5,2.3,7.8,3.6,7.8,5.4c0,1.8,3.5-4.1,2.5-8.5
		c-0.8-3.9-4.3-6.9-8.6-7.1C98.6,91.6,98,94.7,98,94.7z"/>
	
		<linearGradient id="XMLID_40_" gradientUnits="userSpaceOnUse" x1="-671.7106" y1="223.4141" x2="-692.7211" y2="238.1062" gradientTransform="matrix(-1 0 0 -1 -596.8983 330)">
		<stop  offset="0" style="stop-color:#9ED353"/>
		<stop  offset="0.9839" style="stop-color:#345B0E"/>
	</linearGradient>
	<path id="XMLID_179_" class="st71" d="M101.2,90.9c0,0,0.1,5-4.4,6.4c-4.5,1.4-7.6,2.1-8,3.8c-0.4,1.7-2.2-4.7-0.4-8.8
		c1.6-3.7,5.3-5.9,9.1-5.3C101.3,87.6,101.2,90.9,101.2,90.9z"/>
	
		<linearGradient id="XMLID_41_" gradientUnits="userSpaceOnUse" x1="-673.9271" y1="103.8719" x2="-659.9728" y2="103.8719" gradientTransform="matrix(-0.9556 0.2948 -0.2948 -0.9556 -493.9567 387.2618)">
		<stop  offset="0" style="stop-color:#9ED353"/>
		<stop  offset="0.9839" style="stop-color:#345B0E"/>
	</linearGradient>
	<path id="XMLID_178_" class="st72" d="M104.8,91.1c0,0,0.1,2.6,2.7,3.1c2.6,0.5,4.4,0.6,4.6,1.5c0.3,0.9,1.1-2.5,0-4.6
		c-1-1.8-3.2-2.7-5.3-2.2C104.6,89.4,104.8,91.1,104.8,91.1z"/>
	
		<linearGradient id="XMLID_42_" gradientUnits="userSpaceOnUse" x1="103.0646" y1="714.2564" x2="115.0647" y2="714.2564" gradientTransform="matrix(0.4962 0.8682 0.9052 -0.5173 -607.955 357.695)">
		<stop  offset="0" style="stop-color:#9ED353"/>
		<stop  offset="0.9839" style="stop-color:#345B0E"/>
	</linearGradient>
	<path id="XMLID_177_" class="st73" d="M97.7,87.4c0,0-1.5,1.4-3.2,0.4c-1.7-1.1-2.8-1.9-3.4-1.5c-0.6,0.4,0.8-2,2.5-2.6
		c1.5-0.5,3.3,0.1,4.2,1.5C98.7,86.6,97.7,87.4,97.7,87.4z"/>
	
		<linearGradient id="XMLID_43_" gradientUnits="userSpaceOnUse" x1="-520.7768" y1="685.0067" x2="-510.5256" y2="699.9311" gradientTransform="matrix(-0.3603 -0.89 1.0932 -0.4425 -849.6257 -57.8879)">
		<stop  offset="0" style="stop-color:#9ED353"/>
		<stop  offset="0.9839" style="stop-color:#345B0E"/>
	</linearGradient>
	<path id="XMLID_176_" class="st74" d="M101,89.6c0.6,2.2-1.3,5.1-4.1,5.7c-2.7,0.5-6.7,1.2-6.7,1.2s-0.2-6,2-7.8
		c1.3-1.1,4.3-2.9,6.3-2.3C100.4,86.9,101,89.6,101,89.6z"/>
	
		<linearGradient id="XMLID_44_" gradientUnits="userSpaceOnUse" x1="-707.9146" y1="228.7011" x2="-691.9521" y2="251.9404" gradientTransform="matrix(-1 0 0 -1 -596.8983 330)">
		<stop  offset="0" style="stop-color:#9ED353"/>
		<stop  offset="0.9839" style="stop-color:#345B0E"/>
	</linearGradient>
	<path id="XMLID_175_" class="st75" d="M103.5,82.5c3.8,0.4,7.2,4.4,6.3,8.1c-0.9,3.7-2.4,9.2-2.4,9.2s-6.8-4.3-9.2-5.6
		s-3.6-7.9-1.5-10.1C98.9,81.8,103.5,82.5,103.5,82.5z"/>
	
		<linearGradient id="XMLID_45_" gradientUnits="userSpaceOnUse" x1="-228.3281" y1="-148.3741" x2="-204.8378" y2="-148.3741" gradientTransform="matrix(-0.185 0.9827 -0.9827 -0.185 -79.9591 267.527)">
		<stop  offset="0" style="stop-color:#9ED353"/>
		<stop  offset="0.9839" style="stop-color:#345B0E"/>
	</linearGradient>
	<path id="XMLID_174_" class="st76" d="M100.7,87c0,0,4,1.8,6.6-1.6c2.7-3.4,4.3-6,5.8-5.7c1.5,0.3-2.9-3.6-6.8-3.5
		c-3.5,0.1-6.5,2.5-7.4,6.2C98.2,86,100.7,87,100.7,87z"/>
	
		<linearGradient id="XMLID_46_" gradientUnits="userSpaceOnUse" x1="96.2309" y1="716.3395" x2="112.1019" y2="716.3395" gradientTransform="matrix(0.4962 0.8682 0.9052 -0.5173 -607.955 357.695)">
		<stop  offset="0" style="stop-color:#9ED353"/>
		<stop  offset="0.9839" style="stop-color:#345B0E"/>
	</linearGradient>
	<path id="XMLID_173_" class="st77" d="M99.9,84.4c0,0-2.4,2.3-5.1,0.6c-2.7-1.7-4.5-3-5.5-2.5c-1,0.6,1.3-3.2,4-4.1
		c2.5-0.8,5.2,0.1,6.7,2.4C101.5,83,99.9,84.4,99.9,84.4z"/>
	<polygon id="XMLID_277_" class="st65" points="188.5,147.7 171.7,157.4 159.4,150.2 175.8,140.5 	"/>
	<polygon id="XMLID_278_" class="st78" points="188.5,154 171.7,163.6 159.4,156.4 175.8,146.7 	"/>
	
		<linearGradient id="XMLID_47_" gradientUnits="userSpaceOnUse" x1="-722.634" y1="222.1827" x2="-717.0533" y2="202.5272" gradientTransform="matrix(-1 0 0 -1 -596.8983 330)">
		<stop  offset="0" style="stop-color:#EFE1DA"/>
		<stop  offset="1" style="stop-color:#59423B"/>
	</linearGradient>
	<path id="XMLID_276_" class="st79" d="M112.2,124.8l8.3,4.8c1.1,0.6,3,0.5,4.2-0.2l4.9-2.8c1.2-0.7,1.4-1.8,0.3-2.4l-8.3-4.8
		c-1.1-0.6-3-0.5-4.2,0.2l-4.9,2.8C111.2,123.1,111.1,124.1,112.2,124.8z"/>
	<path id="XMLID_275_" class="st9" d="M112.2,122.4l8.3,4.8c1.1,0.6,3,0.5,4.2-0.2l4.9-2.8c1.2-0.7,1.4-1.8,0.3-2.4l-8.3-4.8
		c-1.1-0.6-3-0.5-4.2,0.2l-4.9,2.8C111.2,120.7,111.1,121.8,112.2,122.4z"/>
	
		<linearGradient id="XMLID_48_" gradientUnits="userSpaceOnUse" x1="-722.3105" y1="215.4785" x2="-712.3733" y2="215.4785" gradientTransform="matrix(-1 0 0 -1 -596.8983 330)">
		<stop  offset="0" style="stop-color:#FFE966"/>
		<stop  offset="1" style="stop-color:#CE8900"/>
	</linearGradient>
	<path id="XMLID_816_" class="st80" d="M121,107.3v12.4c0,1.1-1.6,2-3.5,2s-3.5-0.9-3.5-2v-12.4H121z"/>
	<ellipse id="XMLID_274_" class="st81" cx="117.6" cy="107.4" rx="3.5" ry="2"/>
	
		<linearGradient id="XMLID_49_" gradientUnits="userSpaceOnUse" x1="-718.57" y1="224.1763" x2="-713.3546" y2="224.1763" gradientTransform="matrix(-1 0 0 -1 -596.8983 330)">
		<stop  offset="0" style="stop-color:#FFE966"/>
		<stop  offset="1" style="stop-color:#CE8900"/>
	</linearGradient>
	<path id="XMLID_817_" class="st82" d="M119.4,103.5v3.5c0,0.6-0.8,1.1-1.8,1.1c-1,0-1.8-0.5-1.8-1.1v-3.5H119.4z"/>
	<path id="XMLID_272_" class="st81" d="M115.7,103.6c0,0.6,0.8,1.1,1.8,1.1c1,0,1.8-0.5,1.8-1.1c0-0.6-0.8-1.1-1.8-1.1
		C116.5,102.5,115.7,103,115.7,103.6z"/>
</g>
</svg>
